<?xml version="1.0" encoding="UTF-8" standalone="no"?>
<!DOCTYPE svg PUBLIC "-//W3C//DTD SVG 20001102//EN" "http://www.w3.org/TR/2000/CR-SVG-20001102/DTD/svg-20001103.dtd">
  <!-- Include the SVG content here -->
<svg width="1000" height="400" xmlns="http://www.w3.org/2000/svg" xmlns:xlink="http://www.w3.org/1999/xlink"><g transform="translate(50, 20)"><g class="legend" transform="translate(740, 0)"><g transform="translate(0, 0)"><rect width="18" height="18" fill="rgba(75, 192, 192, 1)"></rect><text x="24" y="9" dy=".35em" style="text-anchor: start;">Total Image Sizes</text></g><g transform="translate(0, 20)"><rect width="18" height="18" fill="rgba(255, 99, 132, 1)"></rect><text x="24" y="9" dy=".35em" style="text-anchor: start;">Code Area Sizes</text></g><g transform="translate(0, 40)"><rect width="18" height="18" fill="rgba(255, 205, 86, 1)"></rect><text x="24" y="9" dy=".35em" style="text-anchor: start;">Image Heap Sizes</text></g></g><g class="grid" transform="translate(0, 320)" fill="none" font-size="10" font-family="sans-serif" text-anchor="middle"><path class="domain" stroke="currentColor" d="M0.5,0.5H730.5"></path><g class="tick" opacity="1" transform="translate(13.33887043189365,0)"><line stroke="lightgrey" y2="-320" stroke-dasharray="2,2" stroke-width="1"></line><text fill="currentColor" y="3" dy="0.71em">19.12.
14:14</text></g><g class="tick" opacity="1" transform="translate(37.59136212624581,0)"><line stroke="lightgrey" y2="-320" stroke-dasharray="2,2" stroke-width="1"></line><text fill="currentColor" y="3" dy="0.71em">19.12.
14:16</text></g><g class="tick" opacity="1" transform="translate(61.84385382059797,0)"><line stroke="lightgrey" y2="-320" stroke-dasharray="2,2" stroke-width="1"></line><text fill="currentColor" y="3" dy="0.71em">19.12.
14:19</text></g><g class="tick" opacity="1" transform="translate(86.09634551495014,0)"><line stroke="lightgrey" y2="-320" stroke-dasharray="2,2" stroke-width="1"></line><text fill="currentColor" y="3" dy="0.71em">19.12.
14:20</text></g><g class="tick" opacity="1" transform="translate(110.3488372093023,0)"><line stroke="lightgrey" y2="-320" stroke-dasharray="2,2" stroke-width="1"></line><text fill="currentColor" y="3" dy="0.71em">19.12.
14:21</text></g><g class="tick" opacity="1" transform="translate(134.60132890365446,0)"><line stroke="lightgrey" y2="-320" stroke-dasharray="2,2" stroke-width="1"></line><text fill="currentColor" y="3" dy="0.71em">19.12.
14:24</text></g><g class="tick" opacity="1" transform="translate(158.85382059800662,0)"><line stroke="lightgrey" y2="-320" stroke-dasharray="2,2" stroke-width="1"></line><text fill="currentColor" y="3" dy="0.71em">19.12.
14:26</text></g><g class="tick" opacity="1" transform="translate(183.10631229235878,0)"><line stroke="lightgrey" y2="-320" stroke-dasharray="2,2" stroke-width="1"></line><text fill="currentColor" y="3" dy="0.71em">19.12.
14:35</text></g><g class="tick" opacity="1" transform="translate(207.35880398671094,0)"><line stroke="lightgrey" y2="-320" stroke-dasharray="2,2" stroke-width="1"></line><text fill="currentColor" y="3" dy="0.71em">19.12.
14:37</text></g><g class="tick" opacity="1" transform="translate(231.6112956810631,0)"><line stroke="lightgrey" y2="-320" stroke-dasharray="2,2" stroke-width="1"></line><text fill="currentColor" y="3" dy="0.71em">19.12.
14:53</text></g><g class="tick" opacity="1" transform="translate(255.86378737541526,0)"><line stroke="lightgrey" y2="-320" stroke-dasharray="2,2" stroke-width="1"></line><text fill="currentColor" y="3" dy="0.71em">19.12.
14:55</text></g><g class="tick" opacity="1" transform="translate(280.1162790697675,0)"><line stroke="lightgrey" y2="-320" stroke-dasharray="2,2" stroke-width="1"></line><text fill="currentColor" y="3" dy="0.71em">19.12.
15:01</text></g><g class="tick" opacity="1" transform="translate(304.36877076411963,0)"><line stroke="lightgrey" y2="-320" stroke-dasharray="2,2" stroke-width="1"></line><text fill="currentColor" y="3" dy="0.71em">19.12.
15:03</text></g><g class="tick" opacity="1" transform="translate(328.6212624584718,0)"><line stroke="lightgrey" y2="-320" stroke-dasharray="2,2" stroke-width="1"></line><text fill="currentColor" y="3" dy="0.71em">19.12.
15:09</text></g><g class="tick" opacity="1" transform="translate(352.87375415282395,0)"><line stroke="lightgrey" y2="-320" stroke-dasharray="2,2" stroke-width="1"></line><text fill="currentColor" y="3" dy="0.71em">19.12.
15:11</text></g><g class="tick" opacity="1" transform="translate(377.1262458471761,0)"><line stroke="lightgrey" y2="-320" stroke-dasharray="2,2" stroke-width="1"></line><text fill="currentColor" y="3" dy="0.71em">19.12.
15:42</text></g><g class="tick" opacity="1" transform="translate(401.37873754152827,0)"><line stroke="lightgrey" y2="-320" stroke-dasharray="2,2" stroke-width="1"></line><text fill="currentColor" y="3" dy="0.71em">19.12.
15:44</text></g><g class="tick" opacity="1" transform="translate(425.6312292358804,0)"><line stroke="lightgrey" y2="-320" stroke-dasharray="2,2" stroke-width="1"></line><text fill="currentColor" y="3" dy="0.71em">19.12.
15:52</text></g><g class="tick" opacity="1" transform="translate(449.8837209302326,0)"><line stroke="lightgrey" y2="-320" stroke-dasharray="2,2" stroke-width="1"></line><text fill="currentColor" y="3" dy="0.71em">19.12.
15:54</text></g><g class="tick" opacity="1" transform="translate(474.13621262458474,0)"><line stroke="lightgrey" y2="-320" stroke-dasharray="2,2" stroke-width="1"></line><text fill="currentColor" y="3" dy="0.71em">19.12.
16:50</text></g><g class="tick" opacity="1" transform="translate(498.3887043189369,0)"><line stroke="lightgrey" y2="-320" stroke-dasharray="2,2" stroke-width="1"></line><text fill="currentColor" y="3" dy="0.71em">19.12.
16:52</text></g><g class="tick" opacity="1" transform="translate(522.641196013289,0)"><line stroke="lightgrey" y2="-320" stroke-dasharray="2,2" stroke-width="1"></line><text fill="currentColor" y="3" dy="0.71em">19.12.
18:14</text></g><g class="tick" opacity="1" transform="translate(546.8936877076412,0)"><line stroke="lightgrey" y2="-320" stroke-dasharray="2,2" stroke-width="1"></line><text fill="currentColor" y="3" dy="0.71em">19.12.
18:15</text></g><g class="tick" opacity="1" transform="translate(571.1461794019933,0)"><line stroke="lightgrey" y2="-320" stroke-dasharray="2,2" stroke-width="1"></line><text fill="currentColor" y="3" dy="0.71em">19.12.
18:36</text></g><g class="tick" opacity="1" transform="translate(595.3986710963457,0)"><line stroke="lightgrey" y2="-320" stroke-dasharray="2,2" stroke-width="1"></line><text fill="currentColor" y="3" dy="0.71em">19.12.
18:38</text></g><g class="tick" opacity="1" transform="translate(619.6511627906978,0)"><line stroke="lightgrey" y2="-320" stroke-dasharray="2,2" stroke-width="1"></line><text fill="currentColor" y="3" dy="0.71em">19.12.
18:45</text></g><g class="tick" opacity="1" transform="translate(643.9036544850499,0)"><line stroke="lightgrey" y2="-320" stroke-dasharray="2,2" stroke-width="1"></line><text fill="currentColor" y="3" dy="0.71em">19.12.
18:47</text></g><g class="tick" opacity="1" transform="translate(668.156146179402,0)"><line stroke="lightgrey" y2="-320" stroke-dasharray="2,2" stroke-width="1"></line><text fill="currentColor" y="3" dy="0.71em">27.12.
10:41</text></g><g class="tick" opacity="1" transform="translate(692.4086378737543,0)"><line stroke="lightgrey" y2="-320" stroke-dasharray="2,2" stroke-width="1"></line><text fill="currentColor" y="3" dy="0.71em">27.12.
10:43</text></g><g class="tick" opacity="1" transform="translate(716.6611295681064,0)"><line stroke="lightgrey" y2="-320" stroke-dasharray="2,2" stroke-width="1"></line><text fill="currentColor" y="3" dy="0.71em">30.12.
18:21</text></g></g><g class="grid" fill="none" font-size="10" font-family="sans-serif" text-anchor="end"><path class="domain" stroke="currentColor" d="M0.5,320.5V0.5"></path><g class="tick" opacity="1" transform="translate(0,320.5)"><line stroke="lightgrey" x2="930" stroke-dasharray="2,2" stroke-width="1"></line><text fill="currentColor" x="-3" dy="0.32em">0</text></g><g class="tick" opacity="1" transform="translate(0,288.5)"><line stroke="lightgrey" x2="930" stroke-dasharray="2,2" stroke-width="1"></line><text fill="currentColor" x="-3" dy="0.32em">1</text></g><g class="tick" opacity="1" transform="translate(0,256.5)"><line stroke="lightgrey" x2="930" stroke-dasharray="2,2" stroke-width="1"></line><text fill="currentColor" x="-3" dy="0.32em">2</text></g><g class="tick" opacity="1" transform="translate(0,224.5)"><line stroke="lightgrey" x2="930" stroke-dasharray="2,2" stroke-width="1"></line><text fill="currentColor" x="-3" dy="0.32em">3</text></g><g class="tick" opacity="1" transform="translate(0,192.5)"><line stroke="lightgrey" x2="930" stroke-dasharray="2,2" stroke-width="1"></line><text fill="currentColor" x="-3" dy="0.32em">4</text></g><g class="tick" opacity="1" transform="translate(0,160.5)"><line stroke="lightgrey" x2="930" stroke-dasharray="2,2" stroke-width="1"></line><text fill="currentColor" x="-3" dy="0.32em">5</text></g><g class="tick" opacity="1" transform="translate(0,128.5)"><line stroke="lightgrey" x2="930" stroke-dasharray="2,2" stroke-width="1"></line><text fill="currentColor" x="-3" dy="0.32em">6</text></g><g class="tick" opacity="1" transform="translate(0,96.50000000000001)"><line stroke="lightgrey" x2="930" stroke-dasharray="2,2" stroke-width="1"></line><text fill="currentColor" x="-3" dy="0.32em">7</text></g><g class="tick" opacity="1" transform="translate(0,64.49999999999999)"><line stroke="lightgrey" x2="930" stroke-dasharray="2,2" stroke-width="1"></line><text fill="currentColor" x="-3" dy="0.32em">8</text></g><g class="tick" opacity="1" transform="translate(0,32.49999999999999)"><line stroke="lightgrey" x2="930" stroke-dasharray="2,2" stroke-width="1"></line><text fill="currentColor" x="-3" dy="0.32em">9</text></g><g class="tick" opacity="1" transform="translate(0,0.5)"><line stroke="lightgrey" x2="930" stroke-dasharray="2,2" stroke-width="1"></line><text fill="currentColor" x="-3" dy="0.32em">10</text></g></g><g transform="translate(0, 320)" fill="none" font-size="10" font-family="sans-serif" text-anchor="middle"><path class="domain" stroke="currentColor" d="M0.5,6V0.5H730.5V6"></path><g class="tick" opacity="1" transform="translate(13.33887043189365,0)"><line stroke="currentColor" y2="6"></line><text fill="currentColor" y="9" dy="0.71em" style="text-anchor: end;" transform="rotate(-45)">19.12.
14:14</text></g><g class="tick" opacity="1" transform="translate(37.59136212624581,0)"><line stroke="currentColor" y2="6"></line><text fill="currentColor" y="9" dy="0.71em" style="text-anchor: end;" transform="rotate(-45)">19.12.
14:16</text></g><g class="tick" opacity="1" transform="translate(61.84385382059797,0)"><line stroke="currentColor" y2="6"></line><text fill="currentColor" y="9" dy="0.71em" style="text-anchor: end;" transform="rotate(-45)">19.12.
14:19</text></g><g class="tick" opacity="1" transform="translate(86.09634551495014,0)"><line stroke="currentColor" y2="6"></line><text fill="currentColor" y="9" dy="0.71em" style="text-anchor: end;" transform="rotate(-45)">19.12.
14:20</text></g><g class="tick" opacity="1" transform="translate(110.3488372093023,0)"><line stroke="currentColor" y2="6"></line><text fill="currentColor" y="9" dy="0.71em" style="text-anchor: end;" transform="rotate(-45)">19.12.
14:21</text></g><g class="tick" opacity="1" transform="translate(134.60132890365446,0)"><line stroke="currentColor" y2="6"></line><text fill="currentColor" y="9" dy="0.71em" style="text-anchor: end;" transform="rotate(-45)">19.12.
14:24</text></g><g class="tick" opacity="1" transform="translate(158.85382059800662,0)"><line stroke="currentColor" y2="6"></line><text fill="currentColor" y="9" dy="0.71em" style="text-anchor: end;" transform="rotate(-45)">19.12.
14:26</text></g><g class="tick" opacity="1" transform="translate(183.10631229235878,0)"><line stroke="currentColor" y2="6"></line><text fill="currentColor" y="9" dy="0.71em" style="text-anchor: end;" transform="rotate(-45)">19.12.
14:35</text></g><g class="tick" opacity="1" transform="translate(207.35880398671094,0)"><line stroke="currentColor" y2="6"></line><text fill="currentColor" y="9" dy="0.71em" style="text-anchor: end;" transform="rotate(-45)">19.12.
14:37</text></g><g class="tick" opacity="1" transform="translate(231.6112956810631,0)"><line stroke="currentColor" y2="6"></line><text fill="currentColor" y="9" dy="0.71em" style="text-anchor: end;" transform="rotate(-45)">19.12.
14:53</text></g><g class="tick" opacity="1" transform="translate(255.86378737541526,0)"><line stroke="currentColor" y2="6"></line><text fill="currentColor" y="9" dy="0.71em" style="text-anchor: end;" transform="rotate(-45)">19.12.
14:55</text></g><g class="tick" opacity="1" transform="translate(280.1162790697675,0)"><line stroke="currentColor" y2="6"></line><text fill="currentColor" y="9" dy="0.71em" style="text-anchor: end;" transform="rotate(-45)">19.12.
15:01</text></g><g class="tick" opacity="1" transform="translate(304.36877076411963,0)"><line stroke="currentColor" y2="6"></line><text fill="currentColor" y="9" dy="0.71em" style="text-anchor: end;" transform="rotate(-45)">19.12.
15:03</text></g><g class="tick" opacity="1" transform="translate(328.6212624584718,0)"><line stroke="currentColor" y2="6"></line><text fill="currentColor" y="9" dy="0.71em" style="text-anchor: end;" transform="rotate(-45)">19.12.
15:09</text></g><g class="tick" opacity="1" transform="translate(352.87375415282395,0)"><line stroke="currentColor" y2="6"></line><text fill="currentColor" y="9" dy="0.71em" style="text-anchor: end;" transform="rotate(-45)">19.12.
15:11</text></g><g class="tick" opacity="1" transform="translate(377.1262458471761,0)"><line stroke="currentColor" y2="6"></line><text fill="currentColor" y="9" dy="0.71em" style="text-anchor: end;" transform="rotate(-45)">19.12.
15:42</text></g><g class="tick" opacity="1" transform="translate(401.37873754152827,0)"><line stroke="currentColor" y2="6"></line><text fill="currentColor" y="9" dy="0.71em" style="text-anchor: end;" transform="rotate(-45)">19.12.
15:44</text></g><g class="tick" opacity="1" transform="translate(425.6312292358804,0)"><line stroke="currentColor" y2="6"></line><text fill="currentColor" y="9" dy="0.71em" style="text-anchor: end;" transform="rotate(-45)">19.12.
15:52</text></g><g class="tick" opacity="1" transform="translate(449.8837209302326,0)"><line stroke="currentColor" y2="6"></line><text fill="currentColor" y="9" dy="0.71em" style="text-anchor: end;" transform="rotate(-45)">19.12.
15:54</text></g><g class="tick" opacity="1" transform="translate(474.13621262458474,0)"><line stroke="currentColor" y2="6"></line><text fill="currentColor" y="9" dy="0.71em" style="text-anchor: end;" transform="rotate(-45)">19.12.
16:50</text></g><g class="tick" opacity="1" transform="translate(498.3887043189369,0)"><line stroke="currentColor" y2="6"></line><text fill="currentColor" y="9" dy="0.71em" style="text-anchor: end;" transform="rotate(-45)">19.12.
16:52</text></g><g class="tick" opacity="1" transform="translate(522.641196013289,0)"><line stroke="currentColor" y2="6"></line><text fill="currentColor" y="9" dy="0.71em" style="text-anchor: end;" transform="rotate(-45)">19.12.
18:14</text></g><g class="tick" opacity="1" transform="translate(546.8936877076412,0)"><line stroke="currentColor" y2="6"></line><text fill="currentColor" y="9" dy="0.71em" style="text-anchor: end;" transform="rotate(-45)">19.12.
18:15</text></g><g class="tick" opacity="1" transform="translate(571.1461794019933,0)"><line stroke="currentColor" y2="6"></line><text fill="currentColor" y="9" dy="0.71em" style="text-anchor: end;" transform="rotate(-45)">19.12.
18:36</text></g><g class="tick" opacity="1" transform="translate(595.3986710963457,0)"><line stroke="currentColor" y2="6"></line><text fill="currentColor" y="9" dy="0.71em" style="text-anchor: end;" transform="rotate(-45)">19.12.
18:38</text></g><g class="tick" opacity="1" transform="translate(619.6511627906978,0)"><line stroke="currentColor" y2="6"></line><text fill="currentColor" y="9" dy="0.71em" style="text-anchor: end;" transform="rotate(-45)">19.12.
18:45</text></g><g class="tick" opacity="1" transform="translate(643.9036544850499,0)"><line stroke="currentColor" y2="6"></line><text fill="currentColor" y="9" dy="0.71em" style="text-anchor: end;" transform="rotate(-45)">19.12.
18:47</text></g><g class="tick" opacity="1" transform="translate(668.156146179402,0)"><line stroke="currentColor" y2="6"></line><text fill="currentColor" y="9" dy="0.71em" style="text-anchor: end;" transform="rotate(-45)">27.12.
10:41</text></g><g class="tick" opacity="1" transform="translate(692.4086378737543,0)"><line stroke="currentColor" y2="6"></line><text fill="currentColor" y="9" dy="0.71em" style="text-anchor: end;" transform="rotate(-45)">27.12.
10:43</text></g><g class="tick" opacity="1" transform="translate(716.6611295681064,0)"><line stroke="currentColor" y2="6"></line><text fill="currentColor" y="9" dy="0.71em" style="text-anchor: end;" transform="rotate(-45)">30.12.
18:21</text></g></g><g fill="none" font-size="10" font-family="sans-serif" text-anchor="end"><path class="domain" stroke="currentColor" d="M-6,320.5H0.5V0.5H-6"></path><g class="tick" opacity="1" transform="translate(0,320.5)"><line stroke="currentColor" x2="-6"></line><text fill="currentColor" x="-9" dy="0.32em">0</text></g><g class="tick" opacity="1" transform="translate(0,288.5)"><line stroke="currentColor" x2="-6"></line><text fill="currentColor" x="-9" dy="0.32em">1</text></g><g class="tick" opacity="1" transform="translate(0,256.5)"><line stroke="currentColor" x2="-6"></line><text fill="currentColor" x="-9" dy="0.32em">2</text></g><g class="tick" opacity="1" transform="translate(0,224.5)"><line stroke="currentColor" x2="-6"></line><text fill="currentColor" x="-9" dy="0.32em">3</text></g><g class="tick" opacity="1" transform="translate(0,192.5)"><line stroke="currentColor" x2="-6"></line><text fill="currentColor" x="-9" dy="0.32em">4</text></g><g class="tick" opacity="1" transform="translate(0,160.5)"><line stroke="currentColor" x2="-6"></line><text fill="currentColor" x="-9" dy="0.32em">5</text></g><g class="tick" opacity="1" transform="translate(0,128.5)"><line stroke="currentColor" x2="-6"></line><text fill="currentColor" x="-9" dy="0.32em">6</text></g><g class="tick" opacity="1" transform="translate(0,96.50000000000001)"><line stroke="currentColor" x2="-6"></line><text fill="currentColor" x="-9" dy="0.32em">7</text></g><g class="tick" opacity="1" transform="translate(0,64.49999999999999)"><line stroke="currentColor" x2="-6"></line><text fill="currentColor" x="-9" dy="0.32em">8</text></g><g class="tick" opacity="1" transform="translate(0,32.49999999999999)"><line stroke="currentColor" x2="-6"></line><text fill="currentColor" x="-9" dy="0.32em">9</text></g><g class="tick" opacity="1" transform="translate(0,0.5)"><line stroke="currentColor" x2="-6"></line><text fill="currentColor" x="-9" dy="0.32em">10</text></g></g><text text-anchor="end" transform="rotate(-90)" y="-30" x="-120">Size in MB</text><path fill="none" stroke="rgba(75, 192, 192, 1)" stroke-width="2" d="M13.339,320L37.591,73.06L61.844,320L86.096,73.06L110.349,320L134.601,73.06L158.854,320L183.106,73.06L207.359,320L231.611,73.06L255.864,320L280.116,73.06L304.369,320L328.621,73.06L352.874,320L377.126,73.06L401.379,320L425.631,73.06L449.884,320L474.136,73.06L498.389,320L522.641,73.06L546.894,320L571.146,73.06L595.399,320L619.651,73.06L643.904,320L668.156,73.06L692.409,320L716.661,73.06"></path><circle class="Total Image Sizes" cx="13.33887043189365" cy="320" r="5" fill="rgba(75, 192, 192, 1)"></circle><circle class="Total Image Sizes" cx="37.59136212624581" cy="73.060352" r="5" fill="rgba(75, 192, 192, 1)"></circle><circle class="Total Image Sizes" cx="61.84385382059797" cy="320" r="5" fill="rgba(75, 192, 192, 1)"></circle><circle class="Total Image Sizes" cx="86.09634551495014" cy="73.060352" r="5" fill="rgba(75, 192, 192, 1)"></circle><circle class="Total Image Sizes" cx="110.3488372093023" cy="320" r="5" fill="rgba(75, 192, 192, 1)"></circle><circle class="Total Image Sizes" cx="134.60132890365446" cy="73.060352" r="5" fill="rgba(75, 192, 192, 1)"></circle><circle class="Total Image Sizes" cx="158.85382059800662" cy="320" r="5" fill="rgba(75, 192, 192, 1)"></circle><circle class="Total Image Sizes" cx="183.10631229235878" cy="73.060352" r="5" fill="rgba(75, 192, 192, 1)"></circle><circle class="Total Image Sizes" cx="207.35880398671094" cy="320" r="5" fill="rgba(75, 192, 192, 1)"></circle><circle class="Total Image Sizes" cx="231.6112956810631" cy="73.060352" r="5" fill="rgba(75, 192, 192, 1)"></circle><circle class="Total Image Sizes" cx="255.86378737541526" cy="320" r="5" fill="rgba(75, 192, 192, 1)"></circle><circle class="Total Image Sizes" cx="280.1162790697675" cy="73.060352" r="5" fill="rgba(75, 192, 192, 1)"></circle><circle class="Total Image Sizes" cx="304.36877076411963" cy="320" r="5" fill="rgba(75, 192, 192, 1)"></circle><circle class="Total Image Sizes" cx="328.6212624584718" cy="73.060352" r="5" fill="rgba(75, 192, 192, 1)"></circle><circle class="Total Image Sizes" cx="352.87375415282395" cy="320" r="5" fill="rgba(75, 192, 192, 1)"></circle><circle class="Total Image Sizes" cx="377.1262458471761" cy="73.060352" r="5" fill="rgba(75, 192, 192, 1)"></circle><circle class="Total Image Sizes" cx="401.37873754152827" cy="320" r="5" fill="rgba(75, 192, 192, 1)"></circle><circle class="Total Image Sizes" cx="425.6312292358804" cy="73.060352" r="5" fill="rgba(75, 192, 192, 1)"></circle><circle class="Total Image Sizes" cx="449.8837209302326" cy="320" r="5" fill="rgba(75, 192, 192, 1)"></circle><circle class="Total Image Sizes" cx="474.13621262458474" cy="73.060352" r="5" fill="rgba(75, 192, 192, 1)"></circle><circle class="Total Image Sizes" cx="498.3887043189369" cy="320" r="5" fill="rgba(75, 192, 192, 1)"></circle><circle class="Total Image Sizes" cx="522.641196013289" cy="73.060352" r="5" fill="rgba(75, 192, 192, 1)"></circle><circle class="Total Image Sizes" cx="546.8936877076412" cy="320" r="5" fill="rgba(75, 192, 192, 1)"></circle><circle class="Total Image Sizes" cx="571.1461794019933" cy="73.060352" r="5" fill="rgba(75, 192, 192, 1)"></circle><circle class="Total Image Sizes" cx="595.3986710963457" cy="320" r="5" fill="rgba(75, 192, 192, 1)"></circle><circle class="Total Image Sizes" cx="619.6511627906978" cy="73.060352" r="5" fill="rgba(75, 192, 192, 1)"></circle><circle class="Total Image Sizes" cx="643.9036544850499" cy="320" r="5" fill="rgba(75, 192, 192, 1)"></circle><circle class="Total Image Sizes" cx="668.156146179402" cy="73.060352" r="5" fill="rgba(75, 192, 192, 1)"></circle><circle class="Total Image Sizes" cx="692.4086378737543" cy="320" r="5" fill="rgba(75, 192, 192, 1)"></circle><circle class="Total Image Sizes" cx="716.6611295681064" cy="73.060352" r="5" fill="rgba(75, 192, 192, 1)"></circle><path fill="none" stroke="rgba(255, 99, 132, 1)" stroke-width="2" d="M13.339,320L37.591,202.651L61.844,320L86.096,202.651L110.349,320L134.601,202.651L158.854,320L183.106,202.651L207.359,320L231.611,202.651L255.864,320L280.116,202.651L304.369,320L328.621,202.651L352.874,320L377.126,202.651L401.379,320L425.631,202.651L449.884,320L474.136,202.651L498.389,320L522.641,202.651L546.894,320L571.146,202.651L595.399,320L619.651,202.651L643.904,320L668.156,202.651L692.409,320L716.661,202.651"></path><circle class="Code Area Sizes" cx="13.33887043189365" cy="320" r="5" fill="rgba(255, 99, 132, 1)"></circle><circle class="Code Area Sizes" cx="37.59136212624581" cy="202.651136" r="5" fill="rgba(255, 99, 132, 1)"></circle><circle class="Code Area Sizes" cx="61.84385382059797" cy="320" r="5" fill="rgba(255, 99, 132, 1)"></circle><circle class="Code Area Sizes" cx="86.09634551495014" cy="202.651136" r="5" fill="rgba(255, 99, 132, 1)"></circle><circle class="Code Area Sizes" cx="110.3488372093023" cy="320" r="5" fill="rgba(255, 99, 132, 1)"></circle><circle class="Code Area Sizes" cx="134.60132890365446" cy="202.651136" r="5" fill="rgba(255, 99, 132, 1)"></circle><circle class="Code Area Sizes" cx="158.85382059800662" cy="320" r="5" fill="rgba(255, 99, 132, 1)"></circle><circle class="Code Area Sizes" cx="183.10631229235878" cy="202.651136" r="5" fill="rgba(255, 99, 132, 1)"></circle><circle class="Code Area Sizes" cx="207.35880398671094" cy="320" r="5" fill="rgba(255, 99, 132, 1)"></circle><circle class="Code Area Sizes" cx="231.6112956810631" cy="202.651136" r="5" fill="rgba(255, 99, 132, 1)"></circle><circle class="Code Area Sizes" cx="255.86378737541526" cy="320" r="5" fill="rgba(255, 99, 132, 1)"></circle><circle class="Code Area Sizes" cx="280.1162790697675" cy="202.651136" r="5" fill="rgba(255, 99, 132, 1)"></circle><circle class="Code Area Sizes" cx="304.36877076411963" cy="320" r="5" fill="rgba(255, 99, 132, 1)"></circle><circle class="Code Area Sizes" cx="328.6212624584718" cy="202.651136" r="5" fill="rgba(255, 99, 132, 1)"></circle><circle class="Code Area Sizes" cx="352.87375415282395" cy="320" r="5" fill="rgba(255, 99, 132, 1)"></circle><circle class="Code Area Sizes" cx="377.1262458471761" cy="202.651136" r="5" fill="rgba(255, 99, 132, 1)"></circle><circle class="Code Area Sizes" cx="401.37873754152827" cy="320" r="5" fill="rgba(255, 99, 132, 1)"></circle><circle class="Code Area Sizes" cx="425.6312292358804" cy="202.651136" r="5" fill="rgba(255, 99, 132, 1)"></circle><circle class="Code Area Sizes" cx="449.8837209302326" cy="320" r="5" fill="rgba(255, 99, 132, 1)"></circle><circle class="Code Area Sizes" cx="474.13621262458474" cy="202.651136" r="5" fill="rgba(255, 99, 132, 1)"></circle><circle class="Code Area Sizes" cx="498.3887043189369" cy="320" r="5" fill="rgba(255, 99, 132, 1)"></circle><circle class="Code Area Sizes" cx="522.641196013289" cy="202.651136" r="5" fill="rgba(255, 99, 132, 1)"></circle><circle class="Code Area Sizes" cx="546.8936877076412" cy="320" r="5" fill="rgba(255, 99, 132, 1)"></circle><circle class="Code Area Sizes" cx="571.1461794019933" cy="202.651136" r="5" fill="rgba(255, 99, 132, 1)"></circle><circle class="Code Area Sizes" cx="595.3986710963457" cy="320" r="5" fill="rgba(255, 99, 132, 1)"></circle><circle class="Code Area Sizes" cx="619.6511627906978" cy="202.651136" r="5" fill="rgba(255, 99, 132, 1)"></circle><circle class="Code Area Sizes" cx="643.9036544850499" cy="320" r="5" fill="rgba(255, 99, 132, 1)"></circle><circle class="Code Area Sizes" cx="668.156146179402" cy="202.651136" r="5" fill="rgba(255, 99, 132, 1)"></circle><circle class="Code Area Sizes" cx="692.4086378737543" cy="320" r="5" fill="rgba(255, 99, 132, 1)"></circle><circle class="Code Area Sizes" cx="716.6611295681064" cy="202.651136" r="5" fill="rgba(255, 99, 132, 1)"></circle><path fill="none" stroke="rgba(255, 205, 86, 1)" stroke-width="2" d="M13.339,320L37.591,193.122L61.844,320L86.096,193.122L110.349,320L134.601,193.122L158.854,320L183.106,193.122L207.359,320L231.611,193.122L255.864,320L280.116,193.122L304.369,320L328.621,193.122L352.874,320L377.126,193.122L401.379,320L425.631,193.122L449.884,320L474.136,193.122L498.389,320L522.641,193.122L546.894,320L571.146,193.122L595.399,320L619.651,193.122L643.904,320L668.156,193.122L692.409,320L716.661,193.122"></path><circle class="Image Heap Sizes" cx="13.33887043189365" cy="320" r="5" fill="rgba(255, 205, 86, 1)"></circle><circle class="Image Heap Sizes" cx="37.59136212624581" cy="193.122304" r="5" fill="rgba(255, 205, 86, 1)"></circle><circle class="Image Heap Sizes" cx="61.84385382059797" cy="320" r="5" fill="rgba(255, 205, 86, 1)"></circle><circle class="Image Heap Sizes" cx="86.09634551495014" cy="193.122304" r="5" fill="rgba(255, 205, 86, 1)"></circle><circle class="Image Heap Sizes" cx="110.3488372093023" cy="320" r="5" fill="rgba(255, 205, 86, 1)"></circle><circle class="Image Heap Sizes" cx="134.60132890365446" cy="193.122304" r="5" fill="rgba(255, 205, 86, 1)"></circle><circle class="Image Heap Sizes" cx="158.85382059800662" cy="320" r="5" fill="rgba(255, 205, 86, 1)"></circle><circle class="Image Heap Sizes" cx="183.10631229235878" cy="193.122304" r="5" fill="rgba(255, 205, 86, 1)"></circle><circle class="Image Heap Sizes" cx="207.35880398671094" cy="320" r="5" fill="rgba(255, 205, 86, 1)"></circle><circle class="Image Heap Sizes" cx="231.6112956810631" cy="193.122304" r="5" fill="rgba(255, 205, 86, 1)"></circle><circle class="Image Heap Sizes" cx="255.86378737541526" cy="320" r="5" fill="rgba(255, 205, 86, 1)"></circle><circle class="Image Heap Sizes" cx="280.1162790697675" cy="193.122304" r="5" fill="rgba(255, 205, 86, 1)"></circle><circle class="Image Heap Sizes" cx="304.36877076411963" cy="320" r="5" fill="rgba(255, 205, 86, 1)"></circle><circle class="Image Heap Sizes" cx="328.6212624584718" cy="193.122304" r="5" fill="rgba(255, 205, 86, 1)"></circle><circle class="Image Heap Sizes" cx="352.87375415282395" cy="320" r="5" fill="rgba(255, 205, 86, 1)"></circle><circle class="Image Heap Sizes" cx="377.1262458471761" cy="193.122304" r="5" fill="rgba(255, 205, 86, 1)"></circle><circle class="Image Heap Sizes" cx="401.37873754152827" cy="320" r="5" fill="rgba(255, 205, 86, 1)"></circle><circle class="Image Heap Sizes" cx="425.6312292358804" cy="193.122304" r="5" fill="rgba(255, 205, 86, 1)"></circle><circle class="Image Heap Sizes" cx="449.8837209302326" cy="320" r="5" fill="rgba(255, 205, 86, 1)"></circle><circle class="Image Heap Sizes" cx="474.13621262458474" cy="193.122304" r="5" fill="rgba(255, 205, 86, 1)"></circle><circle class="Image Heap Sizes" cx="498.3887043189369" cy="320" r="5" fill="rgba(255, 205, 86, 1)"></circle><circle class="Image Heap Sizes" cx="522.641196013289" cy="193.122304" r="5" fill="rgba(255, 205, 86, 1)"></circle><circle class="Image Heap Sizes" cx="546.8936877076412" cy="320" r="5" fill="rgba(255, 205, 86, 1)"></circle><circle class="Image Heap Sizes" cx="571.1461794019933" cy="193.122304" r="5" fill="rgba(255, 205, 86, 1)"></circle><circle class="Image Heap Sizes" cx="595.3986710963457" cy="320" r="5" fill="rgba(255, 205, 86, 1)"></circle><circle class="Image Heap Sizes" cx="619.6511627906978" cy="193.122304" r="5" fill="rgba(255, 205, 86, 1)"></circle><circle class="Image Heap Sizes" cx="643.9036544850499" cy="320" r="5" fill="rgba(255, 205, 86, 1)"></circle><circle class="Image Heap Sizes" cx="668.156146179402" cy="193.122304" r="5" fill="rgba(255, 205, 86, 1)"></circle><circle class="Image Heap Sizes" cx="692.4086378737543" cy="320" r="5" fill="rgba(255, 205, 86, 1)"></circle><circle class="Image Heap Sizes" cx="716.6611295681064" cy="193.122304" r="5" fill="rgba(255, 205, 86, 1)"></circle></g></svg>
